<svg xmlns="http://www.w3.org/2000/svg" viewBox="0 0 500 500"><g id="freepik--background-complete--inject-38"><path d="M443.92,330.2sH263.17a5.87,5.87,0,0,1-5.86-5.86V61.06a5.87,5.87,0,0,1,5.86-5.86H443.92a5.87,5.87,0,0,1,5.86,5.86V324.34A5.87,5.87,0,0,1,443.92,330.2sZM263.17,55.45a5.62,5.62,0,0,0-5.61,5.61V324.34a5.62,5.62,0,0,0,5.61,5.61H443.92a5.61,5.61,0,0,0,5.61-5.61V61.06a5.61,5.61,0,0,0-5.61-5.61Z" style="fill:#e0e0e0"></path><path d="M235.49,330.2sH54.75a5.87,5.87,0,0,1-5.87-5.86V61.06a5.87,5.87,0,0,1,5.87-5.86H235.49a5.86,5.86,0,0,1,5.86,5.86V324.34A5.86,5.86,0,0,1,235.49,330.2sZM54.75,55.45a5.62,5.62,0,0,0-5.62,5.61V324.34A5.62,5.62,0,0,0,54.75,330H235.49a5.61,5.61,0,0,0,5.61-5.61V61.06a5.61,5.61,0,0,0-5.61-5.61Z" style="fill:#e0e0e0"></path><rect y="391.27" width="500" height="0.2s5" style="fill:#e0e0e0"></rect><rect x="51.67" y="405.53" width="16.06" height="0.2s5" style="fill:#e0e0e0"></rect><rect x="170.35" y="402.82" width="53.53" height="0.2s5" style="fill:#e0e0e0"></rect><rect x="68.73" y="414.82" width="36.25" height="0.2s5" style="fill:#e0e0e0"></rect><rect x="378.35" y="402.69" width="43.19" height="0.2s5" style="fill:#e0e0e0"></rect><rect x="430.45" y="402.69" width="6.33" height="0.2s5" style="fill:#e0e0e0"></rect><rect x="316.21" y="408.92" width="53.89" height="0.2s5" style="fill:#e0e0e0"></rect><rect x="176.15" y="152.29" width="34.72" height="44.55" style="fill:#e6e6e6"></rect><rect x="168.38" y="152.29" width="40.79" height="44.55" style="fill:#f0f0f0"></rect><rect x="172.14" y="156.25" width="33.09" height="36.64" style="fill:#fff"></rect><rect x="183.01" y="167.96" width="11.94" height="13.22" style="fill:#f0f0f0"></rect><rect x="176.15" y="82.59" width="34.72" height="44.55" style="fill:#e6e6e6"></rect><rect x="168.38" y="82.59" width="40.79" height="44.55" style="fill:#f0f0f0"></rect><rect x="172.14" y="86.55" width="33.09" height="36.64" style="fill:#fff"></rect><rect x="183.01" y="98.26" width="11.94" height="13.22" style="fill:#f0f0f0"></rect><rect x="83.57" y="71.06" width="48.58" height="62.33" style="fill:#e6e6e6"></rect><rect x="72.7" y="71.06" width="57.07" height="62.33" style="fill:#f0f0f0"></rect><rect x="77.96" y="76.59" width="46.3" height="51.26" style="fill:#fff"></rect><rect x="93.17" y="92.97" width="16.71" height="18.5" style="fill:#f0f0f0"></rect><rect x="52.26" y="334.77" width="103.31" height="7.51" style="fill:#e0e0e0"></rect><rect x="44.52" y="236.88" width="121.07" height="56.73" style="fill:#e6e6e6"></rect><rect x="44.48" y="292.62" width="12.09" height="99.36" style="fill:#e6e6e6"></rect><rect x="153.5" y="292.6" width="12.09" height="99.36" style="fill:#e6e6e6"></rect><rect x="52.26" y="243.09" width="105.58" height="44.33" style="fill:#ebebeb"></rect><path d="M110.31,264.61a5.26,5.26,0,1,1-5.25-5.26A5.25,5.25,0,0,1,110.31,264.61Z" style="fill:#e0e0e0"></path><rect x="44.52" y="293.62" width="12.06" height="4.63" style="fill:#e0e0e0"></rect><rect x="153.52" y="293.62" width="12.06" height="4.63" style="fill:#e0e0e0"></rect><path d="M95.4,158.14a15.5,15.5,0,0,0,.4-7.53,15,15,0,0,0-3,7,21.7,21.7,0,0,0-1.22-4.52,7.17,7.17,0,0,0-3-3.52,14.7,14.7,0,0,0,1.34,10,11.24,11.24,0,0,0-6.57-4.95,10,10,0,0,0,7,7.85l2.51-.37a9.21,9.21,0,0,0,7.42-8.88A11.73,11.73,0,0,0,95.4,158.14Z" style="fill:#e0e0e0"></path><path d="M123,160.84c-.1-4.1-.38-8.37-2.4-11.94s-6.29-6.2-10.2s3-5c-4.8,1.42-6.57,7.2-7.44,12.14a284.32,284.32,0,0,0-4.4,49.07l22.43-2C122.17,189,123.36,174.94,123,160.84Z" style="fill:#ebebeb"></path><path d="M109.2,144.53c-2.74,9.71-3.24,19.88-3.89,29.9s-.83,20.13-1.57,30.18c.54-10.06.76-20.14,1.32-30.2s.73-10,1.22-20.2s1,4.14-29.88Z" style="fill:#e6e6e6"></path><path d="M113.11,143.77c-1.44,19.4-1.9,40.72-2.51,60.2s3.29-19.78.76-40.54,2.51-60.2s3Z" style="fill:#e6e6e6"></path><path d="M117.63,145.46c1.18,19.26,2.13,38.75-.33,57.95,2.15-19.23,1.2-38.67.33-57.95Z" style="fill:#e6e6e6"></path><path d="M102.2,171.55c-.53-4.09-1.66-8.81-5.42-10.52s-8.53.89-10.53,4.6-2,8.14-2,12.37q.09,14,.19,28l19-3.24A175.66,175.66,0,0,0,102.2,171.55Z" style="fill:#e6e6e6"></path><path d="M90.4,161.74c-2.71,14.3-1.52,29-1.16,43.41-.68-14.43-1.85-29.16,1.16-43.41Z" style="fill:#e0e0e0"></path><path d="M93,161.63c.48,13.73,1.17,28.82,2.16,42.52-1.31-13.91-2-28.56-2.16-42.52Z" style="fill:#e0e0e0"></path><path d="M96.78,161c2.68,13.88,4.42,28.08,3.87,42.23.24-14.16-1.5-28.29-3.87-42.23Z" style="fill:#e0e0e0"></path><path d="M135,182.23c.42-3.49.48-7.62-2.27-9.82s-7.23-1.06-9.67,1.59-3.37,6.3-4.23,9.79l-5.7,23.15,16.35,1.3A149.2,149.2,0,0,0,135,182.23Z" style="fill:#e6e6e6"></path><path d="M127.29,171.65c-5.21,11.26-7.3,23.61-10,35.62,2.43-12.07,4.55-24.49,10-35.62Z" style="fill:#e0e0e0"></path><path d="M129.44,172.11c-2.41,11.3-5.09,24.22-7.12,35.56,1.81-11.76,4.31-24,7.12-35.56Z" style="fill:#e0e0e0"></path><path d="M132.71,172.41c-.67,12-2.21,24.11-5.65,35.68,3.14-11.65,4.66-23.68,5.65-35.68Z" style="fill:#e0e0e0"></path><path d="M79,201.81h59.87a0,0,0,0,1,0,0V220a20.55,20.55,0,0,1-20.55,20.55H99.59A20.55,20.55,0,0,1,79,220V201.81A0,0,0,0,1,79,201.81Z" style="fill:#e0e0e0"></path><rect x="318.17" y="72.7" width="85.97" height="110.31" style="fill:#e6e6e6"></rect><rect x="298.94" y="72.7" width="100.99" height="110.31" style="fill:#f0f0f0"></rect><rect x="308.25" y="82.5" width="81.93" height="90.71" style="fill:#fff"></rect><rect x="335.16" y="111.48" width="29.57" height="32.74" style="fill:#f0f0f0"></rect><path d="M414.87,353.61c0-.74-2.49-73.63-14.35-85.16-11.53-11.21-24.77-.42-25.32,0L374,267.07c.15-.13,15.09-12.32,27.81.05,12.39,12.05,14.81,83.4,14.91,86.43Z" style="fill:#e0e0e0"></path><path d="M415.89,367.93c-.08-.87-8.1-87.51,23.54-123.82l1.4,1.22C409.71,281,417.66,366.89,417.74,367.75Z" style="fill:#e0e0e0"></path><path d="M414.72,358.77l-1.85-.13c.07-1,6.19-98.49-17-119.84l1.26-1.37C421,259.38,415,354.72,414.72,358.77Z" style="fill:#e0e0e0"></path><path d="M417.74,358.71h-1.85c0-2.69.76-65.87,18.71-76.15,4-2.29,7.9-2.67,11.61-1.14,10.85,4.49,16.23,23.81,16.46,24.63l-1.79.49c-.06-.2-5.37-19.26-15.38-23.4-3.15-1.3-6.51-1-10,1C418.49,293.92,417.75,358.07,417.74,358.71Z" style="fill:#e0e0e0"></path><path d="M410.75,358.76l-1.85-.11c0-.49,2.71-49.92-10.63-67.34-3.23-4.22-6.74-6.23-10.45-6-8.74.61-16.07,13.4-16.14,13.53l-1.62-.92c.32-.56,7.89-13.78,17.63-14.46,4.35-.31,8.42,1.94,12.05,6.69C413.5,308.14,410.87,356.7,410.75,358.76Z" style="fill:#e0e0e0"></path><path d="M413.68,365.48c-.36-4.79-8.72-117.66,6-137.55l1.49,1.11c-14.29,19.33-5.71,135.13-5.62,136.3Z" style="fill:#e0e0e0"></path><path d="M450.2s1,292.85s-8.82,3.25-6.2,10.93,30.52,20.32,30.52,20.32,11.68-10.71,1-28.13S450.45,287.36,450.2s1,292.85Z" style="fill:#ebebeb"></path><path d="M411.86,278.24s9.4-.4,9.93,7.7-20.35,30.49-20.35,30.49-14.9-5.38-11.7-25.59S409.53,273.26,411.86,278.24Z" style="fill:#ebebeb"></path><path d="M403.91,239.48s6.26-.67,5.76-4.48-24.35-13.64-38.42,2.24c0,0,9,15.47,22,15.67S403.91,239.48,403.91,239.48Z" style="fill:#ebebeb"></path><path d="M415.58,230.2s2s-5.67,2.74-7.26-.76S421.77,205,442.11,211c0,0,.53,17.9-10.41,25S415.58,230.2s2,415.58,230.2s2Z" style="fill:#ebebeb"></path><path d="M385.93,289.77s4.32-3.49-.35-5.2S358,283.35,357.79,306c0,0,26.66,4.43,30-4.21S385.93,289.77,385.93,289.77Z" style="fill:#ebebeb"></path><path d="M440.2s9,238.91s-4.33-3.49.34-5.19,27.55-1.22,27.79,21.45c0,0-26.66,4.43-30-4.2S440.2s9,238.91,440.2s9,238.91Z" style="fill:#ebebeb"></path><path d="M426.19,257.18s-.38-4.24,3.05-2.58,15.36,14.54,3,26.75c0,0-16.65-12.33-13.65-18.75S426.19,257.18,426.19,257.18Z" style="fill:#ebebeb"></path><path d="M382.06,263.22s2.59-3.38-1.2-3.8-20.74,4.11-16.79,21c0,0,20.66-1.55,21.54-8.58S382.06,263.22,382.06,263.22Z" style="fill:#ebebeb"></path><polygon points="435.11 391.42 393.44 391.42 382.35 340.2s9 445.14 340.2s9 435.11 391.42" style="fill:#f0f0f0"></polygon><rect x="378.57" y="339.55" width="70.19" height="14.7" style="fill:#e6e6e6"></rect></g><g id="freepik--Shadow--inject-38"><path d="M458.88,440.2s3c0,3.38-93.52,6.13-208.88,6.13s-208.88-2.75-208.88-6.13,93.52-6.14,208.88-6.14S458.88,436.84,458.88,440.2s3Z" style="fill:#f5f5f5"></path></g><g id="freepik--character-2--inject-38"><path d="M273.92,280.61S246.05,295.77,244,296c-2.81.39-35.23-13-35.23-13l-11.24,11.27s26.82,16.07,41,20.44,47.05-12.58,47.05-12.58Z" style="fill:#895555"></path><path d="M214.3,287s.26-5.87-3.07-9.4-5-7.25-7.68-9.71-4,.87-3.23,3.39,3.62,6.91,1.63,7.22-18.15-6-20.86-5.26-.43,2.57-.43,2.57-3.63-1.38-4.95,0,.7,2.93.7,2.93-2.47-.84-2.87,1,13.67,8.8,14.05,9.42c0,0-7.85-5.32-9.79-3.91s2.28,4.58,5.59,7.19a28.64,28.64,0,0,0,12.39,5.1c5.29.89,12.34,3.37,15.32-.62S214.3,287,214.3,287Z" style="fill:#895555"></path><g style="opacity:0.2s"><path d="M176.79,279.34c4.14,1.61,8.22,3.35,12.21,5.22a25.31,25.31,0,0,0-1.14,3.27c-.14.56.75.56.91,0a24.69,24.69,0,0,1,5-9.44c.39-.47-.31-.89-.7-.43a25.47,25.47,0,0,0-1.64,2.19.25.25,0,0,0-.16-.17,43.1,43.1,0,0,0-9.63-4c-.53-.13-.91.68-.37.83a42.41,42.41,0,0,1,9.42,3.91c.12.06.36,1.42.48,1.39-.64,1-1.33.6-1.81,1.63-4-1.88-8.05-3.62-12.21-5.22C176.65,278.33,176.29,279.15,176.79,279.34Z"></path></g><g style="opacity:0.2s"><path d="M206.5,292.55c-4.12-3.3-5.53-8.09-3.75-12.4.21-.49-.67-.83-.88-.34-1.94,4.68-.35,9.8,4.08,13.37C206.42,293.53,207,292.9,206.5,292.55Z"></path></g><polygon points="440.32 419.07 408.38 422.57 406.89 402.32 429.91 401.32 440.32 419.07" style="fill:#895555"></polygon><path d="M429.82,426.62c-2,1.34-3.86,2.17-5.23,0l-1.95-3.11c-.67-1.21-.34-2.53-.2-3.87,1.08-10.18-7.2-9.57-8.77-12.43-2-3.67,11-7.76,11.53-8.28l11.42-11.5c.94-1,3.79-1.62,4.78-.58a2.52,2.52,0,0,1,.45.62l9.75,17.72L465.25,430c3.72,6.76-4.52,11.4-6.64,8.93-9.48-11.1-16.29-13.79-21.56-16.27A63.2,63.2,0,0,0,429.82,426.62Z" style="fill:#071BCF"></path><path d="M465.25,430,451.6,405.16l-9.75-17.72a2.52,2.52,0,0,0-.45-.62c-.68-.71-2.2-.63-3.4-.2l-1,.58,27.62,50.2sA6.1,6.1,0,0,0,465.25,430Z" style="fill:#fff;opacity:0.4"></path><path d="M445.44,426.46a12.81,12.81,0,0,1,2-4.37c.27-.4-.38-.77-.65-.38a13.58,13.58,0,0,0-2.06,4.55.38.38,0,0,0,.73.2Z" style="fill:#263238"></path><path d="M440.91,423.85a14.68,14.68,0,0,1,1.81-4.09c.26-.41-.39-.78-.65-.38a15.23,15.23,0,0,0-1.88,4.27.37.37,0,0,0,.72.2Z" style="fill:#263238"></path><path d="M437.33,422.11a5.54,5.54,0,0,1,1.05-3.23.37.37,0,1,0-.65-.37,6.19,6.19,0,0,0-1.15,3.6.38.38,0,0,0,.75,0Z" style="fill:#263238"></path><path d="M433,424.3a9.72,9.72,0,0,1-1.1-3.51.38.38,0,0,0-.37-.38.38.38,0,0,0-.38.38,10.68,10.68,0,0,0,1.2,3.89c.22.42.87,0,.65-.38Z" style="fill:#263238"></path><g style="opacity:0.30000000000000004"><path d="M427.05,412a4.1,4.1,0,0,0,2.25-3.28,5.05,5.05,0,0,0-.91-2.39l-3.92-6.67h-.08c-3.4,1.41-11.75,4.76-10.2s1,7.55,1.21,2.2,7,2.05,8.2,7.37C424.05,413.61,426.25,412.49,427.05,412Z"></path></g><path d="M393.19,346.72l-7.76-11.37-43.07,6.11-6,8.2s-66.24,27.88-76,34.37c-10.2s1,6.81-19.16,14.71-15.1,30.76S266.92,434.61,287,437s109.25-6.55,109.25-6.55l-5.47-26.67-68-3.2s56.43-3,61.53-7.63C402.25,376.74,393.19,346.72,393.19,346.72Z" style="fill:#263238"></path><path d="M393.19,346.72l-7.76-11.37-43.07,6.11-6,8.2s-66.24,27.88-76,34.37c-10.2s1,6.81-19.16,14.71-15.1,30.76S266.92,434.61,287,437s109.25-6.55,109.25-6.55l-5.47-26.67-68-3.2s56.43-3,61.53-7.63C402.25,376.74,393.19,346.72,393.19,346.72Z" style="fill:#fff;opacity:0.2s"></path><path d="M424.73,347.87,417,336.49l-60.71,7.87,2.51,9.22s-57.09,25.1-66.8,31.59c-10.2s2,6.82-19.16,14.72-15.11,30.76s21.6,19.82,41.65,22.25,101.2-6.84,101.2-6.84l-1.76-34-63.61,4.43s56.38-3,61.52-7.62C434.43,377.62,428.71,355.35,424.73,347.87Z" style="fill:#263238"></path><path d="M424.73,347.87,417,336.49l-60.71,7.87,2.51,9.22s-57.09,25.1-66.8,31.59c-10.2s2,6.82-19.16,14.72-15.11,30.76s21.6,19.82,41.65,22.25,101.2-6.84,101.2-6.84l-1.76-34-63.61,4.43s56.38-3,61.52-7.62C434.43,377.62,428.71,355.35,424.73,347.87Z" style="fill:#fff;opacity:0.2s"></path><polygon points="295.39 261.5 263.25 284.2 279.38 313.62 308.38 297.56 295.39 261.5" style="fill:#071BCF"></polygon><path d="M295.39,261.5c5.67-4.29,39.73-23.82,61.71-24.77l40.34,61.1s20.19,23.8,27.06,46.81c-18.91,26.27-85.53,25.17-89.11,5.44.43.27,4.52-1.25-3.49-16.67-14.11-27.17-30.08-38.78-41-64.42C290.68,268.35,294.82,261.93,295.39,261.5Z" style="fill:#071BCF"></path><path d="M271.11,206.34,270,207.9a4.41,4.41,0,0,0,1.58,8.38,1.17,1.17,0,0,1,.81.24c.32.35.05.88-.15,1.3-1,2.08.45,4.71,2.56,5.6a7.76,7.76,0,0,0,6.6-.73C279.3,216.57,273.25,212.45,271.11,206.34Z" style="fill:#263238"></path><path d="M323.31,202.76A6.27,6.27,0,0,0,327.2,197a3.44,3.44,0,0,0-.51-1.94c-1-1.53-3.26-1.44-5.08-1.17a5.47,5.47,0,0,0,1.54-5.57,4.92,4.92,0,0,0-5.52-4,16.37,16.37,0,0,0-4.56,1.07l3.49,29.7a15.8,15.8,0,0,0,5.74-2.17,7.62,7.62,0,0,0,3.42-4.93A5.08,5.08,0,0,0,323.31,202.76Z" style="fill:#263238"></path><path d="M337.49,246.55C327,243.5,319,224.62,315.94,214.28l-13.16,28.39a29.08,29.08,0,0,1,2.86,2.8,14,14,0,0,1,3.44,6.23,78.34,78.34,0,0,1,.66,7.84s1.43,6.06,16-.81C332.43,256.41,337.49,246.55,337.49,246.55Z" style="fill:#895555"></path><path d="M315.82,204.13c3.38,14.62,5.58,22.79.3,32.35-7.94,14.38-27.64,13.37-35.44.08-7-12-11.37-33.86,1.42-43.82C294.7,182.93,312.45,189.51,315.82,204.13Z" style="fill:#895555"></path><path d="M312.55,186.31c-4.38-7.29-24.75-1.19-29.23,4.57-.67.86,13.14,3.1,12.33,3.06l6.24.19c.82-.46,2.83,0,4.51,2.39,0,0,5.91,22.19,14.21,26.61,4.42-4,2.12-12.81,2.19-18.49C322.91,196.17,322.45,184,312.55,186.31Z" style="fill:#263238"></path><path d="M325.21,214.32a14.31,14.31,0,0,1-4.57,10c-3.76,3.46-6.8-.72-7.73-5.36-.84-4.19-1.1-9.51,3.63-11.21S325.29,209.69,325.21,214.32Z" style="fill:#895555"></path><path d="M296,214.67c.44,1.47,0,2.9-1,3.19s-2.14-.67-2.58-2.14,0-2.89,1-3.18S295.53,213.21,296,214.67Z" style="fill:#263238"></path><path d="M281.27,219.45c.44,1.47,0,2.89-1,3.18s-2.14-.66-2.58-2.13,0-2.89,1-3.18S280.84,218,281.27,219.45Z" style="fill:#263238"></path><path d="M285.84,217.18s-2.6,8.74-3.24,12.17c2.65,1.21,6-.74,6-.74Z" style="fill:#6d3939"></path><path d="M297.59,206.64a.74.74,0,0,1-.73.11,6.1,6.1,0,0,0-5.32.41.75.75,0,0,1-1-.16.72.72,0,0,1,.18-1,7.58,7.58,0,0,1,6.72-.58.69.69,0,0,1,.41.92A.76.76,0,0,1,297.59,206.64Z" style="fill:#263238"></path><path d="M315.21,218a.25.25,0,0,1-.24-.21,7.58,7.58,0,0,1,.37-4,5.05,5.05,0,0,1,2.08-2.69,3.08,3.08,0,0,1,3.4.08.26.26,0,0,1,0,.35.26.26,0,0,1-.36,0,2.59,2.59,0,0,0-2.82,0,4.56,4.56,0,0,0-1.87,2.43,7,7,0,0,0-.35,3.71.24.24,0,0,1-.2.29Z" style="opacity:0.2s"></path><path d="M272.9,215.24a.75.75,0,0,1-.41-.09.72.72,0,0,1-.29-1,7.42,7.42,0,0,1,5.5-3.8.72.72,0,0,1,.79.66.73.73,0,0,1-.68.77,5.81,5.81,0,0,0-4.32,3.06A.79.79,0,0,1,272.9,215.24Z" style="fill:#263238"></path><path d="M314.3,178.14c-2.17-2.93-6.8-2.25-9.92-.51-1.12-4.08-7.26-4.67-10.62-3.47s-4.34,3-4.34,3c.29,0-1.7-1.65-2.79-2.2a11.52,11.52,0,0,0-12.52,1.59A11.94,11.94,0,0,0,270.85,189a6.17,6.17,0,0,0-8.14,2.82,6.54,6.54,0,0,0,3,8.28,5.17,5.17,0,1,0,4.25,9.41c1.11,2.93,2.62,6.55,3.73,9.48l.6-12.28c1.87-1.41,2-2.48,1.69-4.86,2.44,2.32,4.8,1.31,7.9.18a9.19,9.19,0,0,0,5.81-7.49c2.57,2.42,6.36,3.66,9.63,2.52s5.53-5,4.45-8.34a7.63,7.63,0,0,0,9.83-.53A8,8,0,0,0,314.3,178.14Z" style="fill:#263238"></path><path d="M291.19,233a43.17,43.17,0,0,1,5.25,3.29c.25-.25.53-.5.77-.77,3.5-3.5,4-6.28,3.41-8.3a6.51,6.51,0,0,0-1.51-2.62,6.08,6.08,0,0,0-1.32-1.11c-.75,3-3.75,6.48-5.43,8.29C291.59,232.5,291.19,233,291.19,233Z" style="fill:#263238"></path><path d="M292.29,231.76l1.58.93c3.28-3.3,5.15-6.06,5.17-8.12a6.13,6.13,0,0,0-1.32-1.11C297,226.46,294,229.94,292.29,231.76Z" style="fill:#fff"></path><path d="M297.15,235.5c3.5-3.5,4-6.28,3.41-8.3a16,16,0,0,0-3.12,4.65A6.08,6.08,0,0,0,297.15,235.5Z" style="fill:#c15854"></path><polygon points="294.24 277.6 304.5 299.71 308.06 297.74 294.24 277.6" style="isolation:isolate;opacity:0.2s"></polygon><g style="isolation:isolate;opacity:0.2s"><path d="M364.79,314.7a56.16,56.16,0,0,1-8.67,19.06,34.78,34.78,0,0,1-16.51,12.54c7.29-1.31,15.51-4.55,19.88-10.55A29.45,29.45,0,0,0,364.79,314.7Z"></path></g><path d="M351.71,374s6.12.55,13.34-5.27,7.22-8.5,9.64-9.83,46.17-24,46.17-24l-3.71-9.57-52.1,31.78Z" style="isolation:isolate;opacity:0.2s"></path><path d="M403,272.79c.84.23,28.72,41,25.78,49.08s-59.86,37-59,37-6.53-13.63-6.53-13.63l35.22-29.41-18.86-25Z" style="fill:#895555"></path><path d="M335.12,369.91l-9.52-7.06s-7.68,16.33-6.8,17.8,4.81,2.55,8.2.06S335.12,369.91,335.12,369.91Z" style="fill:#071BCF"></path><path d="M335.12,369.91l-9.52-7.06s-7.68,16.33-6.8,17.8,4.81,2.55,8.2.06S335.12,369.91,335.12,369.91Z" style="fill:#fff;isolation:isolate;opacity:0.5"></path><path d="M354.81,374.29l-11.4,3.25s8.26,16,10,16.23,5-2.25,5.05-6.47S354.81,374.29,354.81,374.29Z" style="fill:#071BCF"></path><path d="M354.81,374.29l-11.4,3.25s8.26,16,10,16.23,5-2.25,5.05-6.47S354.81,374.29,354.81,374.29Z" style="fill:#fff;isolation:isolate;opacity:0.5"></path><path d="M358.75,373.58l3.07-11.43s17.14,5.61,17.6,7.27-1.43,5.24-5.58,6S358.75,373.58,358.75,373.58Z" style="fill:#071BCF"></path><path d="M358.75,373.58l3.07-11.43s17.14,5.61,17.6,7.27-1.43,5.24-5.58,6S358.75,373.58,358.75,373.58Z" style="fill:#fff;isolation:isolate;opacity:0.5"></path><path d="M335.12,369.91a71.67,71.67,0,0,1-5.43,8,23.15,23.15,0,0,1-4.08-15.09Z" style="isolation:isolate;opacity:0.2s"></path><path d="M348.86,353.56l-8.58-8.17s14.76-10.31,16.38-9.74,3.36,4.29,1.45,8.07S348.86,353.56,348.86,353.56Z" style="fill:#071BCF"></path><path d="M348.86,353.56l-8.58-8.17s14.76-10.31,16.38-9.74,3.36,4.29,1.45,8.07S348.86,353.56,348.86,353.56Z" style="fill:#fff;isolation:isolate;opacity:0.5"></path><path d="M348.86,353.56a70.74,70.74,0,0,0,7-6.73,23.13,23.13,0,0,0-15.56-1.42Z" style="isolation:isolate;opacity:0.2s"></path><path d="M346.21,382.8s4.36.3,7.46-1.47,2.45-3.64,2.45-3.64l-11,3.08Z" style="isolation:isolate;opacity:0.2s"></path><path d="M329.29,351.06c6.28-7.46,17.87-8,25.89-1.29s9.44,18.27,3.16,25.73-17.86,8-25.89,1.29S323,358.52,329.29,351.06Z" style="fill:#071BCF"></path><path d="M329.29,351.06c6.28-7.46,17.87-8,25.89-1.29s9.44,18.27,3.16,25.73-17.86,8-25.89,1.29S323,358.52,329.29,351.06Z" style="fill:#fff;isolation:isolate;opacity:0.5"></path><path d="M335.49,357.51c3.66-4.34,10.4-4.68,15.07-.75s5.49,10.63,1.84,15-10.4,4.68-15.07.75S331.84,361.85,335.49,357.51Z" style="fill:#fff;isolation:isolate;opacity:0.5"></path><path d="M325.4,362.92a16.75,16.75,0,0,0,14.91-17.74A16.73,16.73,0,0,0,325.4,362.92Z" style="isolation:isolate;opacity:0.2s"></path><path d="M300.8,343.21a7.13,7.13,0,1,1,2.29,9.82A7.13,7.13,0,0,1,300.8,343.21Z" style="fill:#071BCF"></path><path d="M300.8,343.21a7.13,7.13,0,1,1,2.29,9.82A7.13,7.13,0,0,1,300.8,343.21Z" style="fill:#fff;isolation:isolate;opacity:0.5"></path><path d="M303.85,350.52a4.66,4.66,0,1,0-.57-6.57,4.66,4.66,0,0,0,.57,6.57Z" style="fill:#fff;isolation:isolate;opacity:0.5"></path><path d="M316.82,335.1a7.13,7.13,0,1,0-.88-10.05,7.12,7.12,0,0,0,.88,10.05Z" style="fill:#071BCF"></path><path d="M316.82,335.1a7.13,7.13,0,1,0-.88-10.05,7.12,7.12,0,0,0,.88,10.05Z" style="fill:#fff;isolation:isolate;opacity:0.5"></path><path d="M318.36,333.23a4.66,4.66,0,1,0-.56-6.56h0A4.68,4.68,0,0,0,318.36,333.23Z" style="fill:#fff;isolation:isolate;opacity:0.5"></path><path d="M310.93,360c6.26,5.27,16.67,3.18,23.32-4.7s6.91-18.53.65-23.81-16.68-3.17-23.33,4.71S304.71,354.68,310.93,360Z" style="fill:#071BCF"></path><path d="M310.93,360c6.26,5.27,16.67,3.18,23.32-4.7s6.91-18.53.65-23.81-16.68-3.17-23.33,4.71S304.71,354.68,310.93,360Z" style="fill:#fff;isolation:isolate;opacity:0.5"></path><path d="M328.17,339.5c1.13,1,2.37,1.35,2.77.88s-.21-1.63-1.34-2.59-2.38-1.35-2.78-.87S327,338.54,328.17,339.5Z" style="fill:#263238"></path><path d="M316.28,353.66c1.13,1,2.38,1.35,2.78.87s-.21-1.63-1.35-2.58-2.37-1.35-2.78-.88S315.14,352.69,316.28,353.66Z" style="fill:#263238"></path><path d="M323,349.85c.93.77,2.6.27,3.77-1.11s1.35-3.09.42-3.87-2.58-.28-3.75,1.1S322.12,349.08,323,349.85Z" style="fill:#263238"></path><path d="M359.58,373.82a19.12,19.12,0,0,0,2-6l.41-1.71s.44,4.91-.53,8.06Z" style="isolation:isolate;opacity:0.2s"></path><path d="M367.79,345.57s-4.52-3.7-8.85-3.42-4.62.18-7.56,1.57c-2.38,1.13-2.31,2.47-2.31,2.47,2.1,1.05,5.73,2.92,5.58,3.55-.5,2-15.22,10.51-16.47,13.18s1.35,2.06,1.35,2.06-3.16,2-3.12,4,2.29,1.42,2.29,1.42a1.78,1.78,0,0,0-.11,3c1.31,1.2,13.08-5,13.71-4.93,0,0-8.3,2.71-8.64,5.21s4.32,1.26,8,.37,7.91-3.57,11-6.49c3.9-3.64,9.91-7.63,9.27-12.69A20,20,0,0,0,367.79,345.57Z" style="fill:#895555"></path><path d="M398.46,315.84a9.13,9.13,0,0,1,8.79,0A8.45,8.45,0,0,0,397,313.91Z" style="isolation:isolate;opacity:0.2s"></path><path d="M383.05,295.37l-2.66,2s-18.15-21.75-18-21.44,18.05,26.77,18.05,26.77l4.43-4.86Z" style="isolation:isolate;opacity:0.2s"></path><path d="M355.45,236.83a28.73,28.73,0,0,1,20.89,6.54c9.3,7.6,30.91,28.94,30.91,28.94L381.7,296.65l-29.37-29.59Z" style="fill:#071BCF"></path><path d="M354.54,260c-1.56-7.13,3.17-14.67,10-17a15.19,15.19,0,0,1,3-.68,20.2s1,20.2s1,0,0,0-5.28,2.63,17.87,17.87,0,0,0-7.65,15Z" style="isolation:isolate;opacity:0.2s"></path></g><g id="freepik--characters-1--inject-38"><path d="M152.11,213.49a3.5,3.5,0,0,0,2-3.76,5.21,5.21,0,0,0-2.66-3.56A10.63,10.63,0,0,0,147,205a7.94,7.94,0,0,0-4.35.58l6.47,18.71a10.84,10.84,0,0,0,3.88-2.69,6.13,6.13,0,0,0,1.62-4.35A4.31,4.31,0,0,0,152.11,213.49Z" style="fill:#263238"></path><path d="M150.59,198.05c-2.11-1.46-4.63-1.71-7.07-1.92a8,8,0,0,0,1-9.07c-2.41-4.13-7.58-3.8-11.64-2.44-3.55,1.19-7.19,3-9.39,6.52a6.45,6.45,0,0,0-3.36-4.72,9.21,9.21,0,0,0-5.3-.77,13.88,13.88,0,0,0-8.39,3.83,12.93,12.93,0,0,0-3.75,9.51c-4-1.79-8.91.2-11.17,4.52s-1.6,10.5,1.5,14c-1.61,1.76-1.52,4.39-.58,6.74s6.09,1.49,8.25,1.1l34.77-12.6c4.15,2.52,9.11.07,13.3-2.37,2-1.14,4.1-2.53,4.77-5A7.18,7.18,0,0,0,150.59,198.05Z" style="fill:#263238"></path><path d="M133.68,218.3S145,238.7,145.53,245c4.34,3.69,7.42-3.79,7.25-13.82-.13-8.2-4.41-17.06-11.5-20.2s5C131.32,206.49,133.68,218.3,133.68,218.3Z" style="fill:#263238"></path><path d="M147.73,280.93c-3.75-1-12.07-3.3-15.59-4a7.26,7.26,0,0,1-2.39-6.61,28,28,0,0,1,1.74-6.47l-2.82-3.08L114,247c.7,9.56,2.41,24.88-4.88,30.34,0,0-6.38,4.84-10.2s7,6.05-1.42,4.37-8.82,24.8-8.82,24.8L153.7,303C155.14,293.09,147.36,282.61,147.73,280.93Z" style="fill:#b97964"></path><path d="M130.38,271.17c-4-2.18-8.42-6-8.07-10.66a21.08,21.08,0,0,1,.93-5l8.31,10.2s1A26.38,26.38,0,0,0,130.38,271.17Z" style="opacity:0.2s"></path><path d="M110.09,231.77c1.86,14.53,2.35,20.71,10.15,28.09,11.74,11.09,29,6.59,31.49-8,2.23-13.11-1.19-34.68-15.74-40.2s9C121.67,206.06,108.22,217.23,110.09,231.77Z" style="fill:#b97964"></path><path d="M129.87,236.89c0,1.37.8,2.53,1.76,2.6s1.72-1,1.71-2.36-.8-2.53-1.75-2.6S129.86,235.52,129.87,236.89Z" style="fill:#263238"></path><path d="M144.71,235.62c-.06,1.32.65,2.49,1.6,2.62s1.78-.86,1.84-2.18-.65-2.5-1.6-2.62S144.78,234.29,144.71,235.62Z" style="fill:#263238"></path><path d="M126,232.19a.62.62,0,0,0,.51-.19,5.26,5.26,0,0,1,4.74-1.56.66.66,0,0,0,.82-.52.78.78,0,0,0-.57-.88,6.59,6.59,0,0,0-6,1.91.72.72,0,0,0,0,1A.75.75,0,0,0,126,232.19Z" style="fill:#263238"></path><path d="M148.6,229.21a.68.68,0,0,0,.39-.34.71.71,0,0,0-.36-.94,7.55,7.55,0,0,0-6.68-.16.64.64,0,0,0-.22.94.78.78,0,0,0,1,.27,6,6,0,0,1,5.28.19A.78.78,0,0,0,148.6,229.21Z" style="fill:#263238"></path><path d="M106.11,243.81a11.74,11.74,0,0,0,7.29,5.26c3.89.83,5.66-5.45,4.2-9.27a7.76,7.76,0,0,0-8.92-4.71C105,236,104,240.47,106.11,243.81Z" style="fill:#b97964"></path><path d="M139.6,234.7a49.49,49.49,0,0,0,5.18,8.68,1.13,1.13,0,0,1-.47,1.74,7.24,7.24,0,0,1-3.91.21Z" style="fill:#a24e3f"></path><path d="M131.29,234.48l3.39-.63S132.73,236.26,131.29,234.48Z" style="fill:#263238"></path><path d="M146.2,233.44l3.42-.43S147.53,235.29,146.2,233.44Z" style="fill:#263238"></path><path d="M106.15,223.8c-2,2.86,2,11.16,2,11.16s7-2.08,7.38,8.46c2.58.43,5.48-9.41,5.06-19.3C120,218.53,109.64,218.75,106.15,223.8Z" style="fill:#263238"></path><path d="M112.52,245.34h-.06a5.52,5.52,0,0,1-3.86-2.7,3.3,3.3,0,0,1-.29-2.65,2.59,2.59,0,0,1,3.25-1.5.24.24,0,0,1,.14.32.24.24,0,0,1-.32.14,2.11,2.11,0,0,0-2.6,1.23,2.82,2.82,0,0,0,.26,2.23,5,5,0,0,0,3.54,2.44.24.24,0,0,1,.18.3A.24.24,0,0,1,112.52,245.34Z" style="opacity:0.2s"></path><path d="M141.74,250.09a37.25,37.25,0,0,0-2.43,4.74l-.91-.22c-4.13-1.06-5.69-2.91-6.17-4.65a5.45,5.45,0,0,1,0-2.6,5.36,5.36,0,0,1,.48-1.4c1.85,1.87,5.62,3.15,7.66,3.75C141.2,250,141.74,250.09,141.74,250.09Z" style="fill:#263238"></path><path d="M140.34,249.71l-.75,1.38c-3.88-1-6.48-2.24-7.39-3.73a5.36,5.36,0,0,1,.48-1.4C134.53,247.83,138.3,249.11,140.34,249.71Z" style="fill:#fff"></path><path d="M138.4,254.61c-4.13-1.06-5.69-2.91-6.17-4.65a13.64,13.64,0,0,1,4.34,2.09A5.15,5.15,0,0,1,138.4,254.61Z" style="fill:#c15854"></path><path d="M147.39,215.69c-3.08-6.42-15.65-12.38-30.11-6.18-13.06,5.57-19.2,21.48-9.76,22.19s25.23-7.45,25.23-7.45Z" style="fill:#263238"></path><path d="M114.49,254.61s-14.42-11.17-16-26.63c0,0,6.15-19.64,32.83-21.08l6.08,1.2S110.2s5,223.16,114.49,254.61Z" style="fill:#071BCF"></path><path d="M132.07,207a11,11,0,0,1,13.27,4.2,45.52,45.52,0,0,1,7,16.76s-2-10.2s5-7.64-13.4a78.9,78.9,0,0,0-10.43-4.92Z" style="fill:#071BCF"></path><polygon points="129.84 213.95 130.7 206.96 128.68 207.1 127.46 216.06 129.84 213.95" style="opacity:0.30000000000000004"></polygon><path d="M100.19,224.25s2,13.89,14.07,26.84l-.15-5.58s-8.08-12.6-11.69-24.65A20.48,20.48,0,0,0,100.19,224.25Z" style="opacity:0.30000000000000004"></path><path d="M106.6,216.31a57.12,57.12,0,0,0,9.28,19.05,46.69,46.69,0,0,1,1.64-4.54,117.2,117.2,0,0,1-8-16.84A32.06,32.06,0,0,0,106.6,216.31Z" style="opacity:0.30000000000000004"></path><path d="M119.12,209.13c-1.24.41-2.41.87-3.51,1.36a57.14,57.14,0,0,0,6,12.86c.85-1.28,1.74-2.49,2.64-3.61A117.22,117.22,0,0,1,119.12,209.13Z" style="opacity:0.30000000000000004"></path><path d="M144.35,214.38,142,207.82s1.68,1.38,2.19,2,2.09,5.91,2,5.88Z" style="opacity:0.30000000000000004"></path><path d="M130.64,207.39s3.39-7.47,7.09-5.17,9.23,13.42,5.38,13-12.22.84-13.27-1.24S130.64,207.39,130.64,207.39Z" style="fill:#071BCF"></path><path d="M130.55,214.58l8.63-11.13s2,2.58,2.17,2.81-6.29,8.94-6.29,8.94S131.27,215.21,130.55,214.58Z" style="opacity:0.30000000000000004"></path><polygon points="249.99 447.67 253.53 433.53 218.76 417.51 213.14 439 249.99 447.67" style="fill:#b97964"></polygon><polygon points="237.14 425.98 247.24 430.17 242.31 445.71 231.39 443.29 237.14 425.98" style="opacity:0.30000000000000004"></polygon><path d="M249.3,430.43l-3.05,4.2a3.69,3.69,0,0,0-.48,3.29c1.55,4.81-1,5.73-6,6.11-1.41,1.53.19,3.37.6,3.88l9.14,11.4a2.22,2.22,0,0,0,3.56-.09l10-13.85L277.13,426c3.83-5.29-.71-10.2s4-2.78-8.42-9.26,8.22-17.17,13.07-22.21,14C251.24,431.79,251.28,430.94,249.3,430.43Z" style="fill:#263238"></path><path d="M259.14,423.68a2.15,2.15,0,0,0-.86-1.71,1,1,0,0,0-1-.19c-1.89.64-3.24,7.66-3.38,8.46a.29.29,0,0,0,.44.32,23.68,23.68,0,0,0,3.36-3.57A5.79,5.79,0,0,0,259.14,423.68Zm-1.69-1.28a.37.37,0,0,1,.42.09,1.68,1.68,0,0,1,.62,1.24c0,1.84-2.44,4.44-3.85,5.78C255.26,426.64,256.42,422.76,257.45,422.4Z" style="fill:#071BCF"></path><path d="M254.54,430.42c.49-2.05.29-7.23-1.21-8-.3-.18-.8-.23-1.41.42-2.41,2.63,1.86,7.61,2.08,7.77a.21.21,0,0,0,.41-.06Zm-2.26-7.22c.44-.5.63-.36.7-.31.94.46,1.36,4.41,1,6.78-.95-1.23-3.2-4.47-1.88-6.29Z" style="fill:#071BCF"></path><path d="M254.36,435.34a.26.26,0,0,1-.24-.16,6.53,6.53,0,0,1,.3-5.43.25.25,0,0,1,.34-.1.24.24,0,0,1,.1.33,6,6,0,0,0-.27,5,.24.24,0,0,1-.14.32A.15.15,0,0,1,254.36,435.34Z" style="fill:#071BCF"></path><path d="M258.21,434.16A.25.25,0,0,1,258,434a6.55,6.55,0,0,1,.29-5.44.26.26,0,0,1,.34-.1.26.26,0,0,1,.11.34,6,6,0,0,0-.28,5,.25.25,0,0,1-.14.33Z" style="fill:#071BCF"></path><path d="M262.21,432.11A.25.25,0,0,1,262,432a6.51,6.51,0,0,1,.3-5.44.24.24,0,0,1,.33-.1.25.25,0,0,1,.11.34,6,6,0,0,0-.28,5,.25.25,0,0,1-.14.32Z" style="fill:#071BCF"></path><path d="M150.61,361.82,165.94,375c24.23-.59,105.2-8.81,107.68,16.83,10.65,29.71-63.46,31.87-112.52,35.65a1,1,0,0,0-.78.51c-.38.64-1.85,2.09-7.07,5.34-12.86,8-21,10.39-32.19,9.6C101.83,441.53,84.58,430.5,86.15,402a95.54,95.54,0,0,1,7.46-33.51Z" style="fill:#263238"></path><path d="M109.24,362.84,94.75,401.39s63.86-13.19,103.63,6.22c0,0,40.2s2-11.7,48-19-43.57,24.24-86.39,2.55-86.39,2.55Z" style="isolation:isolate;opacity:0.2s"></path><polygon points="161.15 431.62 168.5 444.21 204.55 431.36 193.56 412.07 161.15 431.62" style="fill:#b97964"></polygon><path d="M176.6,443.3l-3.36-3.94a3.66,3.66,0,0,0-3.08-1.24c-5,.37-5.33-2.34-4.52-7.3-1.16-1.73-3.32-.61-3.92-.33l-13.23,6.2a2.22,2.22,0,0,0-1.1,2.93,2,2,0,0,0,.36.55l11.09,13,15.55,18.22c4.23,5,10.12,1.73,8.84-.71-5.82-10.94-8.67-19.76-8.42-24.89C174.83,444.87,175.64,445.11,176.6,443.3Z" style="fill:#263238"></path><path d="M180.85,454.46a2.12,2.12,0,0,0,1.86-.43,1,1,0,0,0,.42-.92c-.18-2-6.68-4.94-7.43-5.26a.26.26,0,0,0-.24,0,.28.28,0,0,0-.17.37,23.5,23.5,0,0,0,2.68,4.1A5.75,5.75,0,0,0,180.85,454.46Zm1.64-1.34a.36.36,0,0,1-.18.38,1.7,1.7,0,0,1-1.36.32c-1.79-.41-3.73-3.42-4.7-5.1C178.89,450,182.39,452,182.49,453.12Z" style="fill:#071BCF"></path><path d="M175.38,448.41c1.88.95,7,2,8.1.71.25-.25.41-.72-.07-1.47-2-3-7.84,0-8,.19a.29.29,0,0,0-.18.26.34.34,0,0,0,.13.16Zm7.55-.51c.38.55.2.7.13.76-.66.81-4.6.28-6.82-.6,1.42-.64,5.09-2.06,6.55-.35Z" style="fill:#071BCF"></path><path d="M175.9,448.88a.27.27,0,0,1-.17-.06,6.06,6.06,0,0,0-4.81-1.45.25.25,0,1,1-.07-.49,6.48,6.48,0,0,1,5.21,1.57.23.23,0,0,1,0,.35A.22.22,0,0,1,175.9,448.88Z" style="fill:#071BCF"></path><path d="M176.14,452.91a.2.2,0,0,1-.16-.07,6,6,0,0,0-4.81-1.44.25.25,0,1,1-.08-.5,6.52,6.52,0,0,1,5.22,1.57.25.25,0,0,1,0,.35A.25.25,0,0,1,176.14,452.91Z" style="fill:#071BCF"></path><path d="M177.19,457.28a.2.2,0,0,1-.16-.07,6,6,0,0,0-4.81-1.44.25.25,0,1,1-.08-.5,6.52,6.52,0,0,1,5.22,1.57.25.25,0,0,1,0,.35A.25.25,0,0,1,177.19,457.28Z" style="fill:#071BCF"></path><path d="M238.21,424.71S150,383.9,120.85,385.24s-33.27,27-21.28,43.05,34.18,13.8,34.18,13.8-15.08-15.21-12.9-21.16,10.71,2.36,10.71,2.36,53,17.13,99.44,21.06Z" style="fill:#263238"></path><path d="M162.46,430l-33.6-11.91s8.68,8.85,31.52,15.83c23,7,34.63,5.19,34.63,5.19C193.74,439.79,162.46,430,162.46,430Z" style="isolation:isolate;opacity:0.2s"></path><polygon points="197.96 407.45 230.11 421.06 233.33 420.53 202.79 406.29 197.96 407.45" style="isolation:isolate;opacity:0.2s"></polygon><path d="M166.33,344.19c0-.06-1-27.61-1-27.61h0c.08-2.17.69-24.3-9.64-31.14-6.88-6.31-12.21.23-15.9,7.21-3.54,6.69,2,26.35,2,26.35l6.3-.6c.14,10.07.57,23.9,1.87,30.19,2.16,10.48,5,12.22,22.43,11.9,9.88-.18,19.75-.14,19.75-.14l3.26-10.15S169.72,345.67,166.33,344.19Z" style="fill:#071BCF"></path><path d="M166.33,344.19c0-.06-1-27.61-1-27.61h0c.08-2.17.69-24.3-9.64-31.14-6.88-6.31-12.21.23-15.9,7.21-3.54,6.69,2,26.35,2,26.35l6.3-.6c.14,10.07.57,23.9,1.87,30.19,2.16,10.48,5,12.22,22.43,11.9,9.88-.18,19.75-.14,19.75-.14l3.26-10.15S169.72,345.67,166.33,344.19Z" style="fill:#fff;opacity:0.5"></path><g style="opacity:0.30000000000000004"><path d="M156.23,297.93c1.26,2.66,2.1,4.08,2.3,7.15,1.48,22.51-5.39,26.34-5.41,29.1l1-17C154.88,310.51,155.44,304.6,156.23,297.93Z"></path></g><path d="M89,312,83.3,283.18c5.91-7.31,29.86-12,29.86-12,.2,10.87,19.73,11.92,17.05,3.08a147.25,147.25,0,0,1,14,4.76c7.24,3.1,11.1,5.42,12.51,9.72,0,0,2.29,9.45-1.27,28.19-1,5.15-4.62,32.47-4,41.53l11.59,14.09c-5.73,4.77-15.87,11.77-23.67,10.47-30.14-5-48.2-8.45-48.2-8.45.61-5.53,3.91-14.17,4.91-18.28,0-5.36-1.16-9-2.58-18.51C93.31,335.94,89.62,313.81,89,312Z" style="fill:#071BCF"></path><path d="M89,312,83.3,283.18c5.91-7.31,29.86-12,29.86-12,.2,10.87,19.73,11.92,17.05,3.08a147.25,147.25,0,0,1,14,4.76c7.24,3.1,11.1,5.42,12.51,9.72,0,0,2.29,9.45-1.27,28.19-1,5.15-4.62,32.47-4,41.53l11.59,14.09c-5.73,4.77-15.87,11.77-23.67,10.47-30.14-5-48.2-8.45-48.2-8.45.61-5.53,3.91-14.17,4.91-18.28,0-5.36-1.16-9-2.58-18.51C93.31,335.94,89.62,313.81,89,312Z" style="fill:#fff;opacity:0.5"></path><path d="M92.74,332.62s6.66-16.92,6.66-31.68l-10.71,9.14Z" style="opacity:0.30000000000000004"></path><path d="M187.62,349.77s2.56-3.53,6.12-4,6.26-1.88,8.94-2.09,1.94,2.38.31,3.47-5.3,2.34-4.28,3.43,13.3,4.9,14.54,6.58-.94,1.68-.94,1.68,2.74.88,2.87,2.29-1.75,1.38-1.75,1.38,1.82.65,1.21,1.88-12-1.2-12.5-1c0,0,7,.54,7.49,2.24s-3.44,1.62-6.56,1.61a21.48,21.48,0,0,1-9.55-2.76c-3.49-1.93-8.72-3.74-8.61-7.43S187.62,349.77,187.62,349.77Z" style="fill:#b97964"></path><path d="M225.71,380.39a139.76,139.76,0,0,1,17,14.14c6.27,6.28,7.05,33.57,9.08,45l-7.19,4.54s-10.38-27.71-13.27-38c0,0-20.48-14-18.33-13.57Z" style="fill:#b97964"></path><path d="M192.39,376.5c-.12-.17,23.93,24.27,28.94,36.4,2.46,5.94-2.08,23.28-4.71,40l-8.5-1.72s-.85-31.23-1.36-31.6c-4.78-3.48-34.4-24.12-37.66-30Z" style="fill:#b97964"></path><path d="M217.48,399.43,204.4,387.87l11.19,13.24-21.75,11.43S186,406.6,174,397.15c-7.68-6-9.52-8.79-11.15-22.21l44.44-12.1s1,3.49,1.75,4c0,0,19,13,28.91,21.5Z" style="fill:#071BCF"></path><path d="M251.66,436.22l-2.74.87a2,2,0,0,0-1.27,1.43c-.79,3-2.28,2.43-4.74.64-1.14.2-1,1.74-.94,2.16l.68,9.25A1.44,1.44,0,0,0,244,452a.87.87,0,0,0,.36-.05l9.06-2.88,12.68-4c3.46-1.09,3.23-5.29.72-5.22-6.92.4-11.51-.37-14.17-1.88C252.14,437.66,252.43,437.26,251.66,436.22Z" style="fill:#263238"></path><path d="M258.39,436.77a1.46,1.46,0,0,0,.14-1.18.64.64,0,0,0-.4-.48c-1.09-.43-3.93,2.5-4.25,2.84a.2.2,0,0,0,0,.14.18.18,0,0,0,.16.19,11,11,0,0,0,2.69-.43A2.89,2.89,0,0,0,258.39,436.77Zm-.38-1.3a.25.25,0,0,1,.16.21,1.15,1.15,0,0,1-.1.86c-.57.92-2.54,1.23-3.62,1.34C255.65,436.7,257.41,435.24,258,435.47Z" style="fill:#071BCF"></path><path d="M254.12,438.29c.87-.82,2.41-3.46,2-4.46-.09-.21-.31-.42-.8-.35-2,.35-1.53,4.5-1.47,4.67a.19.19,0,0,0,.1.17.15.15,0,0,0,.11,0Zm1.21-4.47c.37-.07.41.08.43.13.3.6-.76,2.72-1.66,3.75-.06-1-.09-3.47,1.1-3.85Z" style="fill:#071BCF"></path><path d="M252.56,440.77h-.05a.26.26,0,0,1-.2-.29,3.74,3.74,0,0,1,1.92-2.65.25.25,0,0,1,.33.11.26.26,0,0,1-.11.34,3.22,3.22,0,0,0-1.65,2.29A.24.24,0,0,1,252.56,440.77Z" style="fill:#071BCF"></path><path d="M254.73,441.71h0a.25.25,0,0,1-.2-.3,3.71,3.71,0,0,1,1.91-2.64.26.26,0,0,1,.34.11.25.25,0,0,1-.11.33,3.23,3.23,0,0,0-1.65,2.3A.25.25,0,0,1,254.73,441.71Z" style="fill:#071BCF"></path><path d="M257.25,442.28h-.05a.27.27,0,0,1-.2-.3,3.72,3.72,0,0,1,1.92-2.64.25.25,0,0,1,.33.11.25.25,0,0,1-.11.34,3.18,3.18,0,0,0-1.64,2.29A.26.26,0,0,1,257.25,442.28Z" style="fill:#071BCF"></path><path d="M251.66,436.22l-2.74.87a2,2,0,0,0-1.27,1.43c-.79,3-2.28,2.43-4.74.64-1.14.2-1,1.74-.94,2.16l.68,9.25A1.44,1.44,0,0,0,244,452a.87.87,0,0,0,.36-.05l9.06-2.88,12.68-4c3.46-1.09,3.23-5.29.72-5.22-6.92.4-11.51-.37-14.17-1.88C252.14,437.66,252.43,437.26,251.66,436.22Z" style="opacity:0.30000000000000004"></path><path d="M217.67,445.71H214.8a2,2,0,0,0-1.64,1c-1.66,2.62-2.91,1.63-4.72-.83-1.15-.15-1.45,1.37-1.55,1.77l-2.15,9a1.45,1.45,0,0,0,.85,1.75,1,1,0,0,0,.35.06h22.81c3.63,0,4.68-4.08,2.27-4.77-6.72-1.71-10.86-3.83-12.94-6.08C217.7,447.22,218.09,446.93,217.67,445.71Z" style="fill:#263238"></path><path d="M223.92,448.27a1.41,1.41,0,0,0,.49-1.08.67.67,0,0,0-.23-.59c-.91-.73-4.51,1.21-4.91,1.43a.18.18,0,0,0-.1.12.19.19,0,0,0,.1.23,11.23,11.23,0,0,0,2.7.4A2.82,2.82,0,0,0,223.92,448.27Zm0-1.35a.25.25,0,0,1,.09.25,1.12,1.12,0,0,1-.35.79c-.82.7-2.79.4-3.86.17C221.33,447.37,223.45,446.52,224,446.92Z" style="fill:#071BCF"></path><path d="M219.39,448.42c1.08-.52,3.35-2.56,3.22-3.65,0-.22-.15-.49-.64-.57-2-.26-2.82,3.82-2.82,4a.21.21,0,0,0,0,.19h.12Zm2.51-3.88c.37,0,.37.19.37.25.1.66-1.54,2.36-2.72,3.07.25-.95,1-3.33,2.22-3.33Z" style="fill:#071BCF"></path><path d="M217.23,450.33l-.12,0a.25.25,0,0,1-.1-.34,3.74,3.74,0,0,1,2.62-1.94.25.25,0,0,1,.29.21.24.24,0,0,1-.21.28,3.24,3.24,0,0,0-2.26,1.69A.24.24,0,0,1,217.23,450.33Z" style="fill:#071BCF"></path><path d="M219,451.88a.18.18,0,0,1-.12,0,.24.24,0,0,1-.1-.34,3.74,3.74,0,0,1,2.62-1.94.25.25,0,0,1,.08.5,3.18,3.18,0,0,0-2.26,1.68A.24.24,0,0,1,219,451.88Z" style="fill:#071BCF"></path><path d="M221.24,453.19l-.12,0a.26.26,0,0,1-.1-.34,3.75,3.75,0,0,1,2.63-1.94.25.25,0,1,1,.08.49,3.26,3.26,0,0,0-2.27,1.69A.25.25,0,0,1,221.24,453.19Z" style="fill:#071BCF"></path><path d="M201,313.85l25.15.69,17.72-14.66,5,7.69s-15.92,18.74-23.64,20.07-24.91.23-24.91.23Z" style="fill:#b97964"></path><path d="M242.59,302.58s-1.1-3,0-5.43,1.44-4.62,2.42-6.34,2.26-.21,2.26,1.24-.76,4.21.33,4,8.51-6.12,10-6.19.65,1.28.65,1.28,1.67-1.33,2.59-.82.12,1.65.12,1.65,1.15-.85,1.66,0-5.71,6.86-5.8,7.25c0,0,3.23-4.08,4.48-3.66s-.44,2.77-1.74,4.68A15.89,15.89,0,0,1,254,305c-2.62,1.34-5.91,3.79-8.12,2.2A11.21,11.21,0,0,1,242.59,302.58Z" style="fill:#b97964"></path><g style="opacity:0.2s"><path d="M261,292.37c-1.9,1.52-3.75,3.11-5.53,4.75a13.1,13.1,0,0,1,1.14,1.52c.16.27-.3.42-.47.16a13.7,13.7,0,0,0-4.18-4.12c-.28-.18,0-.51.29-.33a12.16,12.16,0,0,1,1.22.87.17.17,0,0,1,.06-.12,24,24,0,0,1,4.38-3.68c.25-.16.59.2.33.37a23.4,23.4,0,0,0-4.29,3.6c-.05.05,0,.81,0,.8.5.41.8.1,1.22.56q2.66-2.46,5.53-4.75C260.86,291.82,261.18,292.19,261,292.37Z"></path></g><g style="opacity:0.2s"><path d="M247.58,304.18a5.78,5.78,0,0,0-.08-7.11c-.19-.22.21-.54.4-.32,1.79,2.13,1.8,5.07.07,7.67A.23.23,0,1,1,247.58,304.18Z"></path></g><path d="M257,299.65a.21.21,0,0,1-.15,0,.24.24,0,0,1,0-.35,28.52,28.52,0,0,1,3.36-3.48.25.25,0,1,1,.32.39,28,28,0,0,0-3.29,3.4A.25.25,0,0,1,257,299.65Z" style="opacity:0.2s"></path><path d="M165.93,332.16c-.68,2.69-8.09,26.21-8.09,26.21l5.75,30-7.42.52s-10.47-26-10.2s3-30.94,5.84-28.15,5.84-28.15Z" style="fill:#b97964"></path><path d="M164.14,388.26s1.41,2,.51,3.76-1,3.36-1.75,4.67-2.22.4-2.36-.6.32-3-.75-2.76-7.82,5.21-9.34,5.43-.77-.8-.77-.8-1.53,1.1-2.49.86-.29-1.13-.29-1.13-1.06.72-1.65.17,4.95-5.4,5-5.68c0,0-2.79,3.19-4.07,3.05s.15-2,1.24-3.44a15.08,15.08,0,0,1,5.11-3.91c2.47-1.23,5.48-3.3,7.84-2.45A8.7,8.7,0,0,1,164.14,388.26Z" style="fill:#b97964"></path><path d="M210.2s5,365.74s-6-19.55-7.64-38.65c-.38-4.57-4.15-15.44-8.69-16.1a35.22,35.22,0,0,0-12,.13c-17.74,2.16-22.32,7.44-22.32,7.44s-.42,32.44,3.12,62.15C182.18,379.72,202.29,374.91,210.2s5,365.74Z" style="fill:#263238"></path><path d="M161,354.74c-.68-6.22-1.11-12-1.4-17.07a11.14,11.14,0,0,1,7.7-2.69S168.63,348.57,161,354.74Z" style="isolation:isolate;opacity:0.2s"></path><path d="M159.57,318.56c-7.35,3.55-13.54,22.77-13.54,22.77l17.44,4.3,4.08-14Z" style="fill:#263238"></path><path d="M192.9,310.87s8.56.1,13.13,1.33,15.54,1.63,15.54,1.63l-.49,17.27-20.44.4Z" style="fill:#263238"></path><polygon points="203.07 331.5 200.76 320.77 206.75 331.38 203.07 331.5" style="isolation:isolate;opacity:0.2s"></polygon><path d="M162.83,263a3.8,3.8,0,0,0-4.83-1.77,2.06,2.06,0,0,0,1.56-2.29,3.24,3.24,0,0,0-1.8-2.35,8.15,8.15,0,0,0-3-.72,25.77,25.77,0,0,0-9.85.82c-2.42.72-4.84,2-6.11,4.17s-1,5.41,1.18,6.75c-2.17-.25-4.06,1.65-4.84,3.69-1,2.52-.57,5.79,1.66,7.3s5.14.77,7.58-.22c-1.62,2-3.13,4.57-2.22,7a5.35,5.35,0,0,0,3.4,3,7,7,0,0,0,5.31-.33,5.81,5.81,0,0,0,3.13-4.21l6.95-16A3.63,3.63,0,0,0,162.83,263Z" style="fill:#263238"></path><path d="M168.51,257.88a2.88,2.88,0,0,0-1.67-.16,9.85,9.85,0,0,0-3.36,1.29,11,11,0,0,0-3.89,3.48,6.48,6.48,0,0,0-.73,1.58,2.67,2.67,0,0,0-.14-.36,6,6,0,0,0-3.71-2.82,10.67,10.67,0,0,0-5.38-.25,2,2,0,0,0-1.49.9,1.47,1.47,0,0,0,.24,1.46,4.33,4.33,0,0,0,1.19,1c2,1.26,3.94,2.52,6,3.58a11,11,0,0,0-6.26,6.13,8.61,8.61,0,0,0-.51,4.7,6.13,6.13,0,0,0,2.51,3.94,3.4,3.4,0,0,0,2.05.63,3.63,3.63,0,0,0,2.49-1.6c1.94-2.63,1.76-6.35,3.58-9.05.69-1,1.67-1.91,1.94-3.11l-.73.13c.73-.25.77-1.38.21-1.91l-.13-.1c1-.37,2.06-.75,3.06-1.2a12.86,12.86,0,0,0,4.77-3.38,4.7,4.7,0,0,0,1.17-2.51A2.39,2.39,0,0,0,168.51,257.88Z" style="fill:#071BCF"></path><path d="M180.58,301.71a5.69,5.69,0,0,1-4.92,2.86,9.28,9.28,0,0,1-5.53-1.93,8.42,8.42,0,0,1-6.47.92,5.83,5.83,0,0,1-4.18-4.76,2.08,2.08,0,0,0-.34-1.26,1.81,1.81,0,0,0-.57-.37,23.42,23.42,0,0,1-4.11-2.18,6.54,6.54,0,0,1-2.64-3.71c-.46-2.13.59-4.27,1.67-6.16a1.88,1.88,0,0,0,.34-1,2.09,2.09,0,0,0-.51-1,8.14,8.14,0,0,1,3.82-12.33,2.59,2.59,0,0,0,1-.48,2.45,2.45,0,0,0,.48-.81,16.79,16.79,0,0,1,10.65-9.19c1.38-.39,3-.55,4.13.31a17.11,17.11,0,0,1,5.45-5.22c2.87-1.85,6.37-3.24,9.65-2.33a10.55,10.55,0,0,1,5.31,3.86,11.1,11.1,0,0,1,2.46,5.41,6.51,6.51,0,0,1-1.79,5.52,2.44,2.44,0,0,1,2.28,1.83,5.6,5.6,0,0,1-.18,3.11c-.47,1.68-1.33,3.44-2.95,4.09" style="fill:#263238"></path><path d="M172.05,300.05c1.67,3,1.21,2.77,1.61,6.22.43,3.74,1,8.78,1,8.78.58.77,5.06,2.84,8.77,3.46,6.2,1,8.06-.82,6.58-5.64a7.89,7.89,0,0,1,2.19-8.71C197.81,298.77,172.05,300.05,172.05,300.05Z" style="fill:#b97964"></path><path d="M172.05,300.05a27.85,27.85,0,0,1,3.15,6.86c3.85,4.77,9.42,5.33,14.59,5.13-.44-2.06-.42-5.86,2.38-7.93C197.81,298.77,172.05,300.05,172.05,300.05Z" style="isolation:isolate;opacity:0.2s"></path><path d="M160.94,290.79c6.08,9.56,9.07,15.5,17.46,17.51,12.63,3.06,24-8.95,21.24-20.31-2.39-10.2s4-11.93-24.13-25-22.16S154.89,281.26,160.94,290.79Z" style="fill:#b97964"></path><path d="M179.82,279.2a.81.81,0,0,0,0-.41.69.69,0,0,0-.89-.34,6.44,6.44,0,0,0-3.93,4.62.64.64,0,0,0,.53.76h0a.69.69,0,0,0,.77-.54h0a5.2,5.2,0,0,1,3.21-3.62A.73.73,0,0,0,179.82,279.2Z" style="fill:#263238"></path><path d="M192.36,272.94a.7.7,0,0,0,.24-.32.67.67,0,0,0-.51-.8,6.58,6.58,0,0,0-5.9,1.41.66.66,0,0,0,0,.93l0,0h0a.68.68,0,0,0,.94,0h0a5.22,5.22,0,0,1,4.73-1A.7.7,0,0,0,192.36,272.94Z" style="fill:#263238"></path><path d="M189.45,285.11l4.05,1s-.23,1.58-2.95,3.19Z" style="fill:#a24e3f"></path><path d="M193,292.28a11.18,11.18,0,0,1-.17,4.73l-.83.16c-3.7.71-5.67-.2-6.72-1.42a5.27,5.27,0,0,1-1.15-3.41c2.2.81,5.69.42,7.6.13A12,12,0,0,0,193,292.28Z" style="fill:#263238"></path><path d="M191.72,292.5l-.09,1.41c-3.51.65-6.07.64-7.38-.21a5,5,0,0,1-.12-1.33C186.32,293.18,189.8,292.79,191.72,292.5Z" style="fill:#fff"></path><path d="M192,297.2c-3.71.7-5.67-.2-6.73-1.42a12.18,12.18,0,0,1,4.3,0A4.65,4.65,0,0,1,192,297.2Z" style="fill:#c15854"></path><path d="M179.39,287.12c.39,1.06,1.29,1.71,2,1.44s.9-1.34.53-2.4-1.3-1.7-2-1.43S179,286.06,179.39,287.12Z" style="fill:#263238"></path><path d="M190.35,281.63c.4,1.05,1.3,1.71,2,1.43s.9-1.34.52-2.4-1.28-1.69-2-1.44S190,280.57,190.35,281.63Z" style="fill:#263238"></path><path d="M191.84,267.48a29.86,29.86,0,0,0-24.25.09c-4,1.81-7.74,4.8-9,9-1,3.47-3.07,8.9-1.39,12.11s4.46,8.12,6.91,10.8l4.66,2.81a3.7,3.7,0,0,0,1-2.9,9,9,0,0,1,.29-3.15c.38-1-1.8-2.67-.82-2.27.75.3.63,1.22,1.31,1.65.94.61,2.13,1.08,2.64.09s1-1.16,1.42-2.52c.17-.6.65-1.15.34-1.7a3.56,3.56,0,0,1-.23-1.6,5,5,0,0,0-1.8-3.33,12.86,12.86,0,0,0-3.35-1.94,5.07,5.07,0,0,0,1.32-8.05,6.32,6.32,0,0,0,7-5.29,7.63,7.63,0,0,0,8.13-1.89,8.69,8.69,0,0,0,5.48.9c.79-.12,1.71-.56,1.72-1.35S192.49,267.77,191.84,267.48Z" style="fill:#263238"></path><path d="M170.77,293.32s-4.37-4.24-7.16-1.66c-5.37,5,2.46,12.51,6.9,10.63S174.1,295.58,170.77,293.32Z" style="fill:#b97964"></path><path d="M168.65,300.5h-.06c-2.13-.49-4.27-2.45-4-4.74h0a2.05,2.05,0,0,1,.52-1.41,2.17,2.17,0,0,1,1.68-.63.26.26,0,0,1,.26.25.25.25,0,0,1-.25.25h0a1.74,1.74,0,0,0-1.31.46,1.59,1.59,0,0,0-.39,1.09c-.24,2,1.68,3.79,3.62,4.25a.25.25,0,0,1-.06.49Z" style="opacity:0.2s"></path><path d="M93.67,364.54s25.73-3.75,31.52-6l3.11-.8a48.07,48.07,0,0,0,11.79.8c6.4-.61,11-2.3,14.9-5.34,3.45-2.71,5.41-7,5.19-6.94s-37,4.39-37,4.39l-27.77,7.87Z" style="isolation:isolate;opacity:0.2s"></path><polygon points="115.96 341.33 116.73 356.3 129.71 352.54 130.46 339.83 115.96 341.33" style="fill:#b97964"></polygon><path d="M116.82,339.83l-27.37,1.73s1.61-8.78,3.29-17.4c4.11-12.35,10-31.06,9.12-34.2-2.35-7.12-8.17-12.37-16.21-8.87-6.33,2.75-12.54,35.63-12.54,35.63-1.56,7.15-3.62,18-4.19,22.77-1.91,15.88,1.49,24.16,20.77,22.75,18.68-1.35,28-4.93,28-4.93Z" style="fill:#071BCF"></path><path d="M116.82,339.83l-27.37,1.73s1.61-8.78,3.29-17.4c4.11-12.35,10-31.06,9.12-34.2-2.35-7.12-8.17-12.37-16.21-8.87-6.33,2.75-12.54,35.63-12.54,35.63-1.56,7.15-3.62,18-4.19,22.77-1.91,15.88,1.49,24.16,20.77,22.75,18.68-1.35,28-4.93,28-4.93Z" style="fill:#fff;opacity:0.5"></path><path d="M127.14,343.38s1-4.69,4.36-6.81,5.47-4.7,8.08-6.1,3,1.52,1.86,3.35-4.29,4.72-2.77,5.37,15.59-1,17.59.13-.19,2.11-.19,2.11,3.15-.35,3.92,1-1.16,2.17-1.16,2.17,2.13-.16,2.07,1.36-12.62,4.16-13.05,4.57c0,0,7.3-2.59,8.55-1.09s-2.74,3.17-5.9,4.55a23.41,23.41,0,0,1-10.85,1.5c-4.37-.38-10.46.13-12-3.63S127.14,343.38,127.14,343.38Z" style="fill:#b97964"></path></g></svg>
